<svg width="24" height="25" viewBox="0 0 24 25" fill="none" xmlns="http://www.w3.org/2000/svg">
<path d="M12.003 15.0521C13.6615 15.0521 15.006 13.7034 15.006 12.0397C15.006 10.376 13.6615 9.02734 12.003 9.02734C10.3445 9.02734 9 10.376 9 12.0397C9 13.7034 10.3445 15.0521 12.003 15.0521Z" fill="black"/>
<path d="M23.9227 7.10578C23.9093 6.09493 23.7203 5.09413 23.3643 4.14815C23.0556 3.35022 22.584 2.62556 21.9798 2.02046C21.3756 1.41537 20.652 0.943145 19.8552 0.633968C18.9227 0.283427 17.9376 0.0938824 16.9418 0.0734069C15.6597 0.0160161 15.2532 0 11.9987 0C8.74411 0 8.32697 8.94966e-08 7.0542 0.0734069C6.05885 0.0940329 5.07421 0.283575 4.14216 0.633968C3.34526 0.94293 2.62153 1.41508 2.01728 2.0202C1.41303 2.62532 0.941567 3.3501 0.633052 4.14815C0.282316 5.08126 0.093456 6.06755 0.0746335 7.06441C0.0173256 8.34969 0 8.75677 0 12.016C0 15.2753 -9.92969e-09 15.6917 0.0746335 16.9677C0.0946246 17.966 0.282541 18.951 0.633052 19.8866C0.942085 20.6844 1.4139 21.4089 2.01835 22.0137C2.6228 22.6186 3.3466 23.0906 4.14349 23.3994C5.07299 23.7641 6.0578 23.9672 7.05553 24C8.33896 24.0574 8.74545 24.0748 12 24.0748C15.2546 24.0748 15.6717 24.0748 16.9445 24C17.9402 23.9804 18.9254 23.7913 19.8578 23.4408C20.6544 23.1313 21.3778 22.6589 21.982 22.0539C22.5862 21.4488 23.0579 20.7243 23.3669 19.9266C23.7175 18.9923 23.9054 18.0074 23.9254 17.0077C23.9827 15.7237 24 15.3167 24 12.0561C23.9973 8.79681 23.9973 8.38306 23.9227 7.10578ZM11.9907 18.1795C8.58685 18.1795 5.82941 15.4181 5.82941 12.0094C5.82941 8.60061 8.58685 5.83918 11.9907 5.83918C13.6247 5.83918 15.1919 6.48925 16.3473 7.64638C17.5028 8.80352 18.1519 10.3729 18.1519 12.0094C18.1519 13.6458 17.5028 15.2152 16.3473 16.3723C15.1919 17.5295 13.6247 18.1795 11.9907 18.1795ZM18.3972 7.04972C18.2084 7.0499 18.0215 7.01281 17.8472 6.94056C17.6728 6.86832 17.5143 6.76235 17.3809 6.62871C17.2474 6.49507 17.1416 6.33639 17.0695 6.16175C16.9973 5.98711 16.9603 5.79994 16.9605 5.61095C16.9605 5.4221 16.9976 5.23509 17.0698 5.06061C17.1419 4.88613 17.2477 4.7276 17.3811 4.59406C17.5144 4.46052 17.6727 4.35459 17.8469 4.28231C18.0212 4.21004 18.2079 4.17284 18.3965 4.17284C18.5851 4.17284 18.7718 4.21004 18.946 4.28231C19.1203 4.35459 19.2786 4.46052 19.4119 4.59406C19.5453 4.7276 19.651 4.88613 19.7232 5.06061C19.7954 5.23509 19.8325 5.4221 19.8325 5.61095C19.8325 6.40641 19.1901 7.04972 18.3972 7.04972Z" fill="black"/>
</svg>
