<svg width="24" height="25" viewBox="0 0 24 25" fill="none" xmlns="http://www.w3.org/2000/svg">
<path d="M12 0C5.3725 0 0 5.38924 0 12.0374C0 18.6855 5.3725 24.0748 12 24.0748C18.6275 24.0748 24 18.6855 24 12.0374C24 5.38924 18.6275 0 12 0ZM9.0625 17.0266H6.6325V9.18227H9.0625V17.0266ZM7.8325 8.21927C7.065 8.21927 6.56875 7.67383 6.56875 6.99924C6.56875 6.31085 7.08 5.78171 7.86375 5.78171C8.6475 5.78171 9.1275 6.31085 9.1425 6.99924C9.1425 7.67383 8.6475 8.21927 7.8325 8.21927ZM17.9375 17.0266H15.5075V12.6794C15.5075 11.6675 15.155 10.9803 14.2763 10.9803C13.605 10.9803 13.2063 11.4455 13.03 11.8932C12.965 12.0524 12.9488 12.2781 12.9488 12.5026V17.0254H10.5175V11.6838C10.5175 10.7045 10.4862 9.8857 10.4537 9.18101H12.565L12.6763 10.2706H12.725C13.045 9.75906 13.8288 9.00421 15.14 9.00421C16.7388 9.00421 17.9375 10.0788 17.9375 12.3885V17.0266Z" fill="black"/>
</svg>
