<svg width="60" height="60" viewBox="0 0 60 60" fill="none" xmlns="http://www.w3.org/2000/svg">
<g clip-path="url(#clip0_10_4)">
<path d="M57.7481 41.2419C54.1625 50.0757 46.4595 57.275 35.8161 59.3869C20.8702 62.3522 7.47972 53.8274 2.28785 41.4064C4.30582 39.5143 7.97496 35.6214 11.8141 31.9166C17.4704 37.2953 23.862 42.5531 30.0361 42.5531C36.139 42.5531 42.651 37.4374 48.3647 31.8737C51.68 35.0381 55.0671 38.6816 57.7481 41.2419ZM50.0902 30.283C53.2139 33.4383 56.147 36.6327 58.5826 38.9232C60.3422 33.3441 60.5119 27.2614 58.8195 21.4728C56.3542 23.8152 53.2901 27.0507 50.0902 30.283V30.283ZM24.9991 26.603V33.5692L29.3925 35.9215C29.8206 36.1459 30.4482 36.1485 30.8787 35.9285L35.034 33.6668V26.72L30.6444 24.5331C30.214 24.313 29.5862 24.3156 29.1581 24.5401L24.9991 26.603V26.603ZM11.7534 28.7039C17.3966 23.2896 23.8826 17.7785 30.0361 17.7785C36.1254 17.7785 42.622 23.066 48.3266 28.65C51.6412 25.3019 55.234 21.586 57.983 19.0208C56.7689 15.9211 54.9908 12.9423 52.6036 10.2142C37.7848 -6.72153 10.2923 -1.69372 2.14734 18.9429C4.11363 20.8294 7.81312 24.9051 11.7536 28.7039H11.7534ZM29.919 20.1214C35.3576 20.1214 40.7947 24.7233 46.6894 30.283C41.3503 35.5471 35.8628 40.2102 30.0361 40.2102C24.3783 40.2102 18.559 35.1889 13.3962 30.2785C18.5401 25.3329 24.2621 20.1214 29.919 20.1214V20.1214ZM31.0884 22.1898C30.2989 21.9462 29.0795 21.9956 28.7306 22.1898C28.7306 22.1898 24.5752 24.2921 23.5774 24.7825C22.5797 25.2728 22.729 26.5536 22.729 26.5536L22.7452 33.8728C22.7452 34.6109 22.9378 34.9929 23.515 35.3967L28.8203 38.0684C29.5286 38.3753 30.8877 38.3417 31.3441 38.1214L36.3806 35.5692C37.0223 35.0836 37.3462 34.6466 37.3621 34.2569V26.575C37.3698 25.8837 37.0085 25.2458 36.0926 24.7505L31.0884 22.1899V22.1898ZM10.0662 30.3429C6.27843 26.6396 3.10605 23.1209 1.3023 21.368C-0.550433 27.4816 -0.346293 33.5596 1.40777 39.0224C3.22828 37.3056 6.35168 33.9745 10.0661 30.3429H10.0662Z" fill="#393E46"/>
</g>
<defs>
<clipPath id="clip0_10_4">
<rect width="60" height="60" fill="white"/>
</clipPath>
</defs>
</svg>
